# Blender v2.78 (sub 0) OBJ File: ''
# www.blender.org
mtllib NashiroRinkaku.mtl
o Kaneki_Kagune__2_Cube_52
v 0.386413 0.206207 -0.329798
v 0.460912 0.243241 -0.477187
v 0.735738 0.055915 -0.408477
v 0.839211 0.731763 -0.284766
v 0.564384 0.919089 -0.353477
v 0.913709 0.768798 -0.432155
v 0.638883 0.956126 -0.500867
v 0.661240 0.018879 -0.261087
vt 1.0000 1.0000
vt 0.0000 1.0000
vt 0.0000 0.0000
vt 1.0000 0.0000
vt 1.0000 1.0000
vt 0.0000 1.0000
vt 1.0000 0.0000
vt 1.0000 1.0000
vt 0.0000 1.0000
vt 1.0000 1.0000
vt 0.0000 1.0000
vt 0.0000 0.0000
vt 1.0000 0.0000
vt 1.0000 1.0000
vt 0.0000 1.0000
vt 1.0000 0.0000
vt 0.0000 0.0000
vt 0.0000 0.0000
vt 1.0000 0.0000
vt 0.0000 0.0000
vn -0.4368 -0.7952 -0.4206
vn -0.1901 0.0800 0.9785
vn 0.4368 0.7952 0.4206
vn 0.4368 0.7951 0.4206
vn 0.1901 -0.0800 -0.9785
vn -0.8928 0.2097 -0.3986
vn 0.8928 -0.2097 0.3986
usemtl Mat_1.001
s 1
f 1/1/1 2/2/1 3/3/1
f 4/4/2 5/5/2 1/6/2
f 6/7/3 7/8/4 5/9/3
f 2/10/5 7/11/5 6/12/5
f 1/13/6 5/5/6 7/11/6
f 8/14/7 3/15/7 6/12/7
f 8/16/1 1/1/1 3/3/1
f 8/17/2 4/4/2 1/6/2
f 4/18/3 6/7/3 5/9/3
f 3/19/5 2/10/5 6/12/5
f 2/20/6 1/13/6 7/11/6
f 4/4/7 8/14/7 6/12/7
o Kaneki_Kagune__2_Cube_71
v 0.632235 1.173240 -0.360655
v 0.692170 1.214729 -0.404928
v 0.823415 1.152414 -0.314623
v 0.750754 1.478290 -0.209771
v 0.619509 1.540607 -0.300076
v 0.810689 1.519779 -0.254043
v 0.679446 1.582095 -0.344347
v 0.763479 1.110925 -0.270351
vt 1.0000 1.0000
vt 0.0000 1.0000
vt 0.0000 0.0000
vt 1.0000 0.0000
vt 1.0000 1.0000
vt 0.0000 1.0000
vt 1.0000 0.0000
vt 1.0000 1.0000
vt 0.0000 1.0000
vt 1.0000 1.0000
vt 0.0000 1.0000
vt 0.0000 0.0000
vt 1.0000 0.0000
vt 1.0000 1.0000
vt 0.0000 1.0000
vt 1.0000 0.0000
vt 0.0000 0.0000
vt 0.0000 0.0000
vt 1.0000 0.0000
vt 0.0000 0.0000
vn 0.0680 -0.7722 -0.6317
vn -0.6077 -0.1497 0.7799
vn -0.0680 0.7722 0.6317
vn 0.6077 0.1497 -0.7799
vn -0.6365 0.1040 -0.7642
vn -0.6365 0.1040 -0.7643
vn 0.6365 -0.1040 0.7642
usemtl Mat_1.001
s 1
f 9/21/8 10/22/8 11/23/8
f 12/24/9 13/25/9 9/26/9
f 14/27/10 15/28/10 13/29/10
f 10/30/11 15/31/11 14/32/11
f 9/33/12 13/25/13 15/31/13
f 16/34/14 11/35/14 14/32/14
f 16/36/8 9/21/8 11/23/8
f 16/37/9 12/24/9 9/26/9
f 12/38/10 14/27/10 13/29/10
f 11/39/11 10/30/11 14/32/11
f 10/40/12 9/33/12 15/31/13
f 12/24/14 16/34/14 14/32/14
o Kaneki_Kagune__2_Cube_61
v 0.605699 0.816400 -0.429603
v 0.690115 0.874835 -0.491958
v 0.874968 0.787065 -0.364767
v 0.772627 1.246049 -0.217088
v 0.587775 1.333819 -0.344279
v 0.857044 1.304485 -0.279443
v 0.672192 1.392254 -0.406634
v 0.790549 0.728632 -0.302413
vt 1.0000 1.0000
vt 0.0000 1.0000
vt 0.0000 0.0000
vt 1.0000 0.0000
vt 1.0000 1.0000
vt 0.0000 1.0000
vt 1.0000 0.0000
vt 1.0000 1.0000
vt 0.0000 1.0000
vt 1.0000 1.0000
vt 0.0000 1.0000
vt 0.0000 0.0000
vt 1.0000 0.0000
vt 1.0000 1.0000
vt 0.0000 1.0000
vt 1.0000 0.0000
vt 0.0000 0.0000
vt 0.0000 0.0000
vt 1.0000 0.0000
vt 0.0000 0.0000
vn 0.0680 -0.7722 -0.6317
vn -0.6077 -0.1497 0.7799
vn -0.0680 0.7722 0.6317
vn 0.6077 0.1497 -0.7799
vn -0.6365 0.1040 -0.7642
vn 0.6365 -0.1040 0.7643
vn 0.6365 -0.1040 0.7642
usemtl Mat_1.001
s 1
f 17/41/15 18/42/15 19/43/15
f 20/44/16 21/45/16 17/46/16
f 22/47/17 23/48/17 21/49/17
f 18/50/18 23/51/18 22/52/18
f 17/53/19 21/45/19 23/51/19
f 24/54/20 19/55/20 22/52/21
f 24/56/15 17/41/15 19/43/15
f 24/57/16 20/44/16 17/46/16
f 20/58/17 22/47/17 21/49/17
f 19/59/18 18/50/18 22/52/18
f 18/60/19 17/53/19 23/51/19
f 20/44/21 24/54/20 22/52/21
o Kaneki_Kagune__2_Cube_41
v 0.018475 -0.381235 0.033846
v 0.086870 -0.356394 -0.112371
v 0.425385 -0.618849 -0.088046
v 0.695347 0.125793 -0.343998
v 0.356832 0.388249 -0.368323
v 0.763742 0.150636 -0.490216
v 0.425229 0.413091 -0.514541
v 0.356988 -0.643690 0.058171
vt 1.0000 1.0000
vt 0.0000 1.0000
vt 0.0000 0.0000
vt 1.0000 0.0000
vt 1.0000 1.0000
vt 0.0000 1.0000
vt 1.0000 0.0000
vt 1.0000 1.0000
vt 0.0000 1.0000
vt 1.0000 1.0000
vt 0.0000 1.0000
vt 0.0000 0.0000
vt 1.0000 0.0000
vt 1.0000 1.0000
vt 0.0000 1.0000
vt 1.0000 0.0000
vt 0.0000 0.0000
vt 0.0000 0.0000
vt 1.0000 0.0000
vt 0.0000 0.0000
vn -0.5487 -0.7432 -0.3829
vn 0.2239 0.3723 0.9007
vn 0.5487 0.7432 0.3829
vn -0.2239 -0.3723 -0.9007
vn -0.9009 0.1930 -0.3886
vn 0.9009 -0.1930 0.3886
usemtl Mat_1.001
s 1
f 25/61/22 26/62/22 27/63/22
f 28/64/23 29/65/23 25/66/23
f 30/67/24 31/68/24 29/69/24
f 26/70/25 31/71/25 30/72/25
f 25/73/26 29/65/26 31/71/26
f 32/74/27 27/75/27 30/72/27
f 32/76/22 25/61/22 27/63/22
f 32/77/23 28/64/23 25/66/23
f 28/78/24 30/67/24 29/69/24
f 27/79/25 26/70/25 30/72/25
f 26/80/26 25/73/26 31/71/26
f 28/64/27 32/74/27 30/72/27
o Kaneki_Kagune__2_Cube_22
v -0.094963 -0.310685 0.683085
v -0.176291 -0.220399 1.016907
v 0.124135 -0.415962 1.194027
v 0.191923 -0.667012 0.584173
v -0.108504 -0.471449 0.407051
v 0.110596 -0.576727 0.917994
v -0.189831 -0.381165 0.740873
v 0.205463 -0.506247 0.860205
vt 1.0000 1.0000
vt 0.0000 1.0000
vt 0.0000 0.0000
vt 1.0000 0.0000
vt 1.0000 1.0000
vt 0.0000 1.0000
vt 1.0000 0.0000
vt 1.0000 1.0000
vt 0.0000 1.0000
vt 1.0000 1.0000
vt 0.0000 1.0000
vt 0.0000 0.0000
vt 1.0000 0.0000
vt 1.0000 1.0000
vt 0.0000 1.0000
vt 1.0000 0.0000
vt 0.0000 0.0000
vt 0.0000 0.0000
vt 1.0000 0.0000
vt 0.0000 0.0000
vn 0.5763 0.8133 -0.0796
vn 0.6543 0.6391 -0.4043
vn -0.5763 -0.8133 0.0796
vn -0.6543 -0.6391 0.4043
vn -0.6856 0.6432 -0.3410
vn 0.6856 -0.6432 0.3410
usemtl Mat_1.001
s 1
f 33/81/28 34/82/28 35/83/28
f 36/84/29 37/85/29 33/86/29
f 38/87/30 39/88/30 37/89/30
f 34/90/31 39/91/31 38/92/31
f 33/93/32 37/85/32 39/91/32
f 40/94/33 35/95/33 38/92/33
f 40/96/28 33/81/28 35/83/28
f 40/97/29 36/84/29 33/86/29
f 36/98/30 38/87/30 37/89/30
f 35/99/31 34/90/31 38/92/31
f 34/100/32 33/93/32 39/91/32
f 36/84/33 40/94/33 38/92/33
o Kaneki_Kagune__2_Cube_31
v -0.098296 -0.416384 0.600091
v -0.130985 -0.495609 0.467567
v 0.143052 -0.761276 0.593102
v 0.426154 -0.547219 0.063291
v 0.152115 -0.281550 -0.062246
v 0.393464 -0.626442 -0.069234
v 0.119425 -0.360774 -0.194769
v 0.175741 -0.682051 0.725626
vt 1.0000 1.0000
vt 0.0000 1.0000
vt 0.0000 0.0000
vt 1.0000 0.0000
vt 1.0000 1.0000
vt 0.0000 1.0000
vt 1.0000 0.0000
vt 1.0000 1.0000
vt 0.0000 1.0000
vt 1.0000 1.0000
vt 0.0000 1.0000
vt 0.0000 0.0000
vt 1.0000 0.0000
vt 1.0000 1.0000
vt 0.0000 1.0000
vt 1.0000 0.0000
vt 0.0000 0.0000
vt 0.0000 0.0000
vt 1.0000 0.0000
vt 0.0000 0.0000
vn -0.7139 -0.5093 0.4806
vn 0.5576 0.7466 0.3628
vn 0.7139 0.5093 -0.4806
vn -0.5576 -0.7466 -0.3628
vn -0.7771 0.6058 -0.1705
vn 0.7771 -0.6058 0.1705
usemtl Mat_1.001
s 1
f 41/101/34 42/102/34 43/103/34
f 44/104/35 45/105/35 41/106/35
f 46/107/36 47/108/36 45/109/36
f 42/110/37 47/111/37 46/112/37
f 41/113/38 45/105/38 47/111/38
f 48/114/39 43/115/39 46/112/39
f 48/116/34 41/101/34 43/103/34
f 48/117/35 44/104/35 41/106/35
f 44/118/36 46/107/36 45/109/36
f 43/119/37 42/110/37 46/112/37
f 42/120/38 41/113/38 47/111/38
f 44/104/39 48/114/39 46/112/39
o Kaneki_Kagune___Cube
v 0.181387 -0.007782 1.072280
v 0.127497 -0.041042 0.727907
v -0.214527 -0.078630 0.782559
v -0.169317 -0.401838 1.165829
v 0.172707 -0.364250 1.111176
v -0.223207 -0.435098 0.821456
v 0.118818 -0.397509 0.766803
v -0.160637 -0.045371 1.126932
vt 1.0000 1.0000
vt 0.0000 1.0000
vt 0.0000 0.0000
vt 1.0000 0.0000
vt 1.0000 1.0000
vt 0.0000 1.0000
vt 1.0000 0.0000
vt 1.0000 1.0000
vt 0.0000 1.0000
vt 1.0000 1.0000
vt 0.0000 1.0000
vt 0.0000 0.0000
vt 0.0000 0.0000
vt 1.0000 1.0000
vt 0.0000 1.0000
vt 1.0000 0.0000
vt 0.0000 0.0000
vt 0.0000 0.0000
vt 1.0000 0.0000
vt 1.0000 0.0000
vn -0.1210 0.9897 -0.0766
vn 0.1458 0.1038 0.9839
vn 0.1210 -0.9897 0.0766
vn -0.1458 -0.1038 -0.9839
vn 0.9878 -0.0405 -0.1507
vn -0.9878 0.0405 0.1507
usemtl Mat_1.001
s 1
f 49/121/40 50/122/40 51/123/40
f 52/124/41 53/125/41 49/126/41
f 54/127/42 55/128/42 53/129/42
f 50/130/43 55/131/43 54/132/43
f 53/125/44 55/131/44 50/133/44
f 56/134/45 51/135/45 54/132/45
f 56/136/40 49/121/40 51/123/40
f 56/137/41 52/124/41 49/126/41
f 52/138/42 54/127/42 53/129/42
f 51/139/43 50/130/43 54/132/43
f 49/140/44 53/125/44 50/133/44
f 52/124/45 56/134/45 54/132/45
