# Blender v2.78 (sub 0) OBJ File: ''
# www.blender.org
mtllib nishiokagune.mtl
o Kaneki_Kagune___Cube_63
v 2.330224 -1.761840 0.800951
v 2.348284 -1.516378 0.830008
v 2.213144 -1.484436 0.648179
v 2.711591 -1.758143 0.525154
v 2.729652 -1.512680 0.554212
v 2.594513 -1.480737 0.372382
v 2.576453 -1.726201 0.343323
v 2.195083 -1.729899 0.619120
vt 1.0000 0.0000
vt 1.0000 1.0000
vt 0.0000 1.0000
vt 1.0000 0.0000
vt 1.0000 1.0000
vt 0.0000 1.0000
vt 1.0000 1.0000
vt 0.0000 1.0000
vt 0.0000 0.0000
vt 1.0000 1.0000
vt 0.0000 1.0000
vt 0.0000 0.0000
vt 0.0000 0.0000
vt 1.0000 1.0000
vt 0.0000 1.0000
vt 0.0000 0.0000
vt 0.0000 0.0000
vt 1.0000 0.0000
vt 1.0000 0.0000
vt 1.0000 0.0000
vn -0.8035 -0.0113 0.5952
vn 0.5813 -0.1377 0.8020
vn 0.8035 0.0113 -0.5952
vn -0.5813 0.1377 -0.8020
vn 0.0756 0.9902 0.1178
vn -0.0756 -0.9902 -0.1178
usemtl Mat_1.001
s 1
f 1/1/1 2/2/1 3/3/1
f 4/4/2 5/5/2 2/6/2
f 6/7/3 5/8/3 4/9/3
f 3/10/4 6/11/4 7/12/4
f 5/5/5 6/11/5 3/13/5
f 1/14/6 8/15/6 7/12/6
f 8/16/1 1/1/1 3/3/1
f 1/17/2 4/4/2 2/6/2
f 7/18/3 6/7/3 4/9/3
f 8/19/4 3/10/4 7/12/4
f 2/20/5 5/5/5 3/13/5
f 4/4/6 1/14/6 7/12/6
o Kaneki_Kagune___Cube_32
v 0.346376 -1.260466 1.050896
v 0.268207 -1.252800 0.709671
v 0.169822 -1.610418 0.723339
v 0.918527 -1.894207 0.913463
v 1.016914 -1.536589 0.899795
v 0.840360 -1.886540 0.572238
v 0.938747 -1.528922 0.558570
v 0.247990 -1.618085 1.064563
vt 1.0000 1.0000
vt 0.0000 1.0000
vt 0.0000 0.0000
vt 1.0000 0.0000
vt 1.0000 1.0000
vt 0.0000 1.0000
vt 1.0000 0.0000
vt 1.0000 1.0000
vt 0.0000 1.0000
vt 1.0000 1.0000
vt 0.0000 1.0000
vt 0.0000 0.0000
vt 0.0000 0.0000
vt 1.0000 1.0000
vt 0.0000 1.0000
vt 1.0000 0.0000
vt 0.0000 0.0000
vt 0.0000 0.0000
vt 1.0000 0.0000
vt 1.0000 0.0000
vn -0.9382 0.2665 0.2209
vn 0.2116 -0.0209 0.9771
vn 0.9382 -0.2665 -0.2209
vn -0.2116 0.0209 -0.9771
vn 0.3678 0.9278 -0.0634
vn -0.3678 -0.9278 0.0634
usemtl Mat_1.001
s 1
f 9/21/7 10/22/7 11/23/7
f 12/24/8 13/25/8 9/26/8
f 14/27/9 15/28/9 13/29/9
f 10/30/10 15/31/10 14/32/10
f 13/25/11 15/31/11 10/33/11
f 12/24/12 16/34/12 11/35/12
f 16/36/7 9/21/7 11/23/7
f 16/37/8 12/24/8 9/26/8
f 12/38/9 14/27/9 13/29/9
f 11/39/10 10/30/10 14/32/10
f 9/40/11 13/25/11 10/33/11
f 14/32/12 12/24/12 11/35/12
o Kaneki_Kagune___Cube_21
v -0.243678 -0.905767 1.084673
v 0.025205 -0.678524 1.033023
v -0.022408 -0.703920 0.687058
v 0.161801 -1.568172 1.085033
v 0.430686 -1.340930 1.033384
v 0.383072 -1.366324 0.687418
v 0.114189 -1.593568 0.739069
v -0.291292 -0.931161 0.738708
vt 1.0000 0.0000
vt 1.0000 1.0000
vt 0.0000 1.0000
vt 1.0000 0.0000
vt 1.0000 1.0000
vt 0.0000 1.0000
vt 1.0000 1.0000
vt 0.0000 1.0000
vt 0.0000 0.0000
vt 1.0000 1.0000
vt 0.0000 1.0000
vt 0.0000 0.0000
vt 1.0000 0.0000
vt 1.0000 1.0000
vt 0.0000 1.0000
vt 0.0000 0.0000
vt 0.0000 0.0000
vt 1.0000 0.0000
vt 1.0000 0.0000
vt 0.0000 0.0000
vn -0.6416 0.7664 0.0320
vn 0.1249 0.0770 0.9892
vn 0.6416 -0.7664 -0.0320
vn -0.1249 -0.0770 -0.9892
vn 0.8428 0.5158 -0.1539
vn 0.8428 0.5158 -0.1538
vn -0.8428 -0.5158 0.1538
usemtl Mat_1.001
s 1
f 17/41/13 18/42/13 19/43/13
f 20/44/14 21/45/14 18/46/14
f 22/47/15 21/48/15 20/49/15
f 19/50/16 22/51/16 23/52/16
f 18/53/17 21/45/18 22/51/18
f 20/44/19 17/54/19 24/55/19
f 24/56/13 17/41/13 19/43/13
f 17/57/14 20/44/14 18/46/14
f 23/58/15 22/47/15 20/49/15
f 24/59/16 19/50/16 23/52/16
f 19/60/17 18/53/17 22/51/18
f 23/52/19 20/44/19 24/55/19
o Kaneki_Kagune___Cube_73
v 2.601866 -1.732346 0.590705
v 2.587482 -1.557196 0.599576
v 2.498275 -1.557312 0.463822
v 2.882029 -1.700881 0.411301
v 2.867644 -1.525730 0.420171
v 2.792824 -1.700996 0.275545
v 2.778438 -1.525846 0.284417
v 2.512660 -1.732463 0.454951
vt 1.0000 0.0000
vt 1.0000 1.0000
vt 0.0000 1.0000
vt 1.0000 0.0000
vt 1.0000 1.0000
vt 0.0000 1.0000
vt 1.0000 0.0000
vt 1.0000 1.0000
vt 0.0000 1.0000
vt 1.0000 1.0000
vt 0.0000 1.0000
vt 0.0000 0.0000
vt 0.0000 0.0000
vt 1.0000 1.0000
vt 0.0000 1.0000
vt 0.0000 0.0000
vt 0.0000 0.0000
vt 0.0000 0.0000
vt 1.0000 0.0000
vt 1.0000 0.0000
vn -0.8318 -0.0960 0.5467
vn 0.5391 0.0016 0.8422
vn 0.8318 0.0960 -0.5467
vn -0.5391 -0.0016 -0.8422
vn -0.0791 0.9956 0.0511
vn 0.0791 -0.9956 -0.0511
usemtl Mat_1.001
s 1
f 25/61/20 26/62/20 27/63/20
f 28/64/21 29/65/21 26/66/21
f 30/67/22 31/68/22 29/69/22
f 27/70/23 31/71/23 30/72/23
f 29/65/24 31/71/24 27/73/24
f 25/74/25 32/75/25 30/72/25
f 32/76/20 25/61/20 27/63/20
f 25/77/21 28/64/21 26/66/21
f 28/78/22 30/67/22 29/69/22
f 32/79/23 27/70/23 30/72/23
f 26/80/24 29/65/24 27/73/24
f 28/64/25 25/74/25 30/72/25
o Kaneki_Kagune___Cube_1
v -0.247935 -0.211485 1.138441
v 0.094088 -0.164118 1.092009
v 0.040199 -0.130741 0.747647
v -0.267124 -1.001368 1.071763
v 0.074899 -0.954000 1.025331
v -0.321015 -0.967991 0.727401
v 0.021010 -0.920622 0.680969
v -0.301826 -0.178108 0.794079
vt 1.0000 0.0000
vt 1.0000 1.0000
vt 0.0000 1.0000
vt 1.0000 0.0000
vt 1.0000 1.0000
vt 0.0000 1.0000
vt 1.0000 0.0000
vt 1.0000 1.0000
vt 0.0000 1.0000
vt 1.0000 1.0000
vt 0.0000 1.0000
vt 0.0000 0.0000
vt 0.0000 0.0000
vt 1.0000 1.0000
vt 0.0000 1.0000
vt 0.0000 0.0000
vt 0.0000 0.0000
vt 0.0000 0.0000
vt 1.0000 0.0000
vt 1.0000 0.0000
vn -0.1210 0.9860 0.1145
vn 0.1458 -0.0867 0.9855
vn 0.1210 -0.9860 -0.1145
vn -0.1458 0.0867 -0.9855
vn 0.9878 -0.0109 -0.1556
vn -0.9878 0.0109 0.1556
usemtl Mat_1.001
s 1
f 33/81/26 34/82/26 35/83/26
f 36/84/27 37/85/27 34/86/27
f 38/87/28 39/88/28 37/89/28
f 35/90/29 39/91/29 38/92/29
f 37/85/30 39/91/30 35/93/30
f 33/94/31 40/95/31 38/92/31
f 40/96/26 33/81/26 35/83/26
f 33/97/27 36/84/27 34/86/27
f 36/98/28 38/87/28 37/89/28
f 40/99/29 35/90/29 38/92/29
f 34/100/30 37/85/30 35/93/30
f 36/84/31 33/94/31 38/92/31
o Kaneki_Kagune___Cube
v 0.181387 0.089642 1.036849
v 0.127497 0.056382 0.692476
v -0.214527 0.018794 0.747128
v -0.169317 -0.304414 1.130398
v 0.172707 -0.266826 1.075745
v -0.223207 -0.337674 0.786025
v 0.118818 -0.300085 0.731372
v -0.160637 0.052053 1.091501
vt 1.0000 1.0000
vt 0.0000 1.0000
vt 0.0000 0.0000
vt 1.0000 0.0000
vt 1.0000 1.0000
vt 0.0000 1.0000
vt 1.0000 0.0000
vt 1.0000 1.0000
vt 0.0000 1.0000
vt 1.0000 1.0000
vt 0.0000 1.0000
vt 0.0000 0.0000
vt 0.0000 0.0000
vt 1.0000 1.0000
vt 0.0000 1.0000
vt 1.0000 0.0000
vt 0.0000 0.0000
vt 0.0000 0.0000
vt 1.0000 0.0000
vt 1.0000 0.0000
vn -0.1210 0.9897 -0.0766
vn 0.1458 0.1038 0.9839
vn 0.1210 -0.9897 0.0766
vn -0.1458 -0.1038 -0.9839
vn 0.9878 -0.0405 -0.1507
vn -0.9878 0.0405 0.1507
usemtl Mat_1.001
s 1
f 41/101/32 42/102/32 43/103/32
f 44/104/33 45/105/33 41/106/33
f 46/107/34 47/108/34 45/109/34
f 42/110/35 47/111/35 46/112/35
f 45/105/36 47/111/36 42/113/36
f 48/114/37 43/115/37 46/112/37
f 48/116/32 41/101/32 43/103/32
f 48/117/33 44/104/33 41/106/33
f 44/118/34 46/107/34 45/109/34
f 43/119/35 42/110/35 46/112/35
f 41/120/36 45/105/36 42/113/36
f 44/104/37 48/114/37 46/112/37
o Kaneki_Kagune___Cube_43
v 0.807816 -1.452906 0.986184
v 0.850767 -1.434735 0.567193
v 0.862431 -1.890916 0.549547
v 1.680871 -1.892529 1.067860
v 1.669204 -1.436346 1.085505
v 1.712154 -1.418176 0.666515
v 1.723819 -1.874359 0.648868
v 0.819481 -1.909088 0.968538
vt 1.0000 1.0000
vt 0.0000 1.0000
vt 0.0000 0.0000
vt 1.0000 0.0000
vt 1.0000 1.0000
vt 0.0000 1.0000
vt 1.0000 1.0000
vt 0.0000 1.0000
vt 0.0000 0.0000
vt 1.0000 1.0000
vt 0.0000 1.0000
vt 0.0000 0.0000
vt 1.0000 0.0000
vt 1.0000 1.0000
vt 0.0000 1.0000
vt 1.0000 0.0000
vt 0.0000 0.0000
vt 1.0000 0.0000
vt 1.0000 0.0000
vt 0.0000 0.0000
vn -0.9945 -0.0214 -0.1029
vn -0.1137 -0.0413 0.9927
vn 0.9945 0.0215 0.1029
vn 0.1137 0.0413 -0.9927
vn -0.0239 0.9989 0.0409
vn 0.0239 -0.9989 -0.0409
vn -0.9945 -0.0215 -0.1029
vn 0.9945 0.0214 0.1029
usemtl Mat_1.001
s 1
f 49/121/38 50/122/38 51/123/38
f 52/124/39 53/125/39 49/126/39
f 54/127/40 53/128/40 52/129/40
f 50/130/41 54/131/41 55/132/41
f 49/133/42 53/125/42 54/131/42
f 56/134/43 51/135/43 55/132/43
f 56/136/44 49/121/38 51/123/38
f 56/137/39 52/124/39 49/126/39
f 55/138/45 54/127/40 52/129/40
f 51/139/41 50/130/41 55/132/41
f 50/140/42 49/133/42 54/131/42
f 52/124/43 56/134/43 55/132/43
o Kaneki_Kagune___Cube_5.001
v 1.648839 -1.868435 1.009469
v 1.652722 -1.502072 1.060386
v 1.599132 -1.454398 0.726526
v 2.343806 -1.862916 0.907188
v 2.347691 -1.496553 0.958105
v 2.294102 -1.448879 0.624244
v 2.290216 -1.815242 0.573327
v 1.595250 -1.820761 0.675608
vt 1.0000 0.0000
vt 1.0000 1.0000
vt 0.0000 1.0000
vt 1.0000 0.0000
vt 1.0000 1.0000
vt 0.0000 1.0000
vt 1.0000 1.0000
vt 0.0000 1.0000
vt 0.0000 0.0000
vt 1.0000 1.0000
vt 0.0000 1.0000
vt 0.0000 0.0000
vt 0.0000 0.0000
vt 1.0000 1.0000
vt 0.0000 1.0000
vt 0.0000 0.0000
vt 0.0000 0.0000
vt 1.0000 0.0000
vt 1.0000 0.0000
vt 1.0000 0.0000
vn -0.9875 -0.0113 0.1569
vn 0.1453 -0.1377 0.9798
vn 0.9875 0.0113 -0.1569
vn 0.9876 0.0113 -0.1569
vn -0.1453 0.1377 -0.9798
vn 0.0126 0.9902 0.1394
vn -0.0126 -0.9902 -0.1394
usemtl Mat_1.000
s 1
f 57/141/46 58/142/46 59/143/46
f 60/144/47 61/145/47 58/146/47
f 62/147/48 61/148/49 60/149/48
f 59/150/50 62/151/50 63/152/50
f 61/145/51 62/151/51 59/153/51
f 60/144/52 57/154/52 64/155/52
f 64/156/46 57/141/46 59/143/46
f 57/157/47 60/144/47 58/146/47
f 63/158/48 62/147/48 60/149/48
f 64/159/50 59/150/50 63/152/50
f 58/160/51 61/145/51 59/153/51
f 63/152/52 60/144/52 64/155/52
o Kaneki_Kagune___Cube_63.001
v 2.215646 -1.795120 0.920563
v 2.209108 -1.549657 0.954145
v 2.233802 -1.517715 0.728946
v 2.682776 -1.791423 0.977958
v 2.676238 -1.545959 1.011542
v 2.700934 -1.514017 0.786342
v 2.707472 -1.759480 0.752759
v 2.240340 -1.763179 0.695363
vt 1.0000 0.0000
vt 1.0000 1.0000
vt 0.0000 1.0000
vt 1.0000 0.0000
vt 1.0000 1.0000
vt 0.0000 1.0000
vt 1.0000 1.0000
vt 0.0000 1.0000
vt 0.0000 0.0000
vt 1.0000 1.0000
vt 0.0000 1.0000
vt 0.0000 0.0000
vt 0.0000 0.0000
vt 1.0000 1.0000
vt 0.0000 1.0000
vt 0.0000 0.0000
vt 0.0000 0.0000
vt 1.0000 0.0000
vt 1.0000 0.0000
vt 1.0000 0.0000
vn -0.9938 -0.0113 -0.1106
vn -0.1197 -0.1377 0.9832
vn 0.9938 0.0113 0.1106
vn 0.1197 0.1377 -0.9832
vn -0.0248 0.9902 0.1377
vn 0.0248 -0.9902 -0.1377
usemtl Mat_1.000
s 1
f 65/161/53 66/162/53 67/163/53
f 68/164/54 69/165/54 66/166/54
f 70/167/55 69/168/55 68/169/55
f 67/170/56 70/171/56 71/172/56
f 69/165/57 70/171/57 67/173/57
f 65/174/58 72/175/58 71/172/58
f 72/176/53 65/161/53 67/163/53
f 65/177/54 68/164/54 66/166/54
f 71/178/55 70/167/55 68/169/55
f 72/179/56 67/170/56 71/172/56
f 66/180/57 69/165/57 67/173/57
f 68/164/58 65/174/58 71/172/58
o Kaneki_Kagune___Cube_73.001
v 2.542616 -1.773303 0.903049
v 2.504236 -1.606766 0.944951
v 2.532669 -1.561283 0.791622
v 2.862843 -1.720127 0.982389
v 2.824462 -1.553590 1.024290
v 2.891278 -1.674643 0.829060
v 2.852896 -1.508107 0.870961
v 2.571050 -1.727820 0.749720
vt 1.0000 0.0000
vt 1.0000 1.0000
vt 0.0000 1.0000
vt 1.0000 0.0000
vt 1.0000 1.0000
vt 0.0000 1.0000
vt 1.0000 0.0000
vt 1.0000 1.0000
vt 0.0000 1.0000
vt 1.0000 1.0000
vt 0.0000 1.0000
vt 0.0000 0.0000
vt 0.0000 0.0000
vt 1.0000 1.0000
vt 0.0000 1.0000
vt 0.0000 0.0000
vt 0.0000 0.0000
vt 0.0000 0.0000
vt 1.0000 0.0000
vt 1.0000 0.0000
vn -0.9600 -0.1642 -0.2267
vn -0.1868 -0.2800 0.9417
vn 0.9600 0.1642 0.2267
vn 0.1868 0.2800 -0.9417
vn -0.2167 0.9462 0.2405
vn 0.2167 -0.9462 -0.2405
usemtl Mat_1.000
s 1
f 73/181/59 74/182/59 75/183/59
f 76/184/60 77/185/60 74/186/60
f 78/187/61 79/188/61 77/189/61
f 75/190/62 79/191/62 78/192/62
f 77/185/63 79/191/63 75/193/63
f 73/194/64 80/195/64 78/192/64
f 80/196/59 73/181/59 75/183/59
f 73/197/60 76/184/60 74/186/60
f 76/198/61 78/187/61 77/189/61
f 80/199/62 75/190/62 78/192/62
f 74/200/63 77/185/63 75/193/63
f 76/184/64 73/194/64 78/192/64
